<svg width="18" height="18" viewBox="0 0 18 18" fill="none" xmlns="http://www.w3.org/2000/svg">
<path d="M17.4727 12.7266C17.7539 12.8672 17.9648 13.1836 17.9648 13.5352C17.9648 13.5703 17.9648 13.6406 17.9648 13.7109L17.1211 17.3672C17.0156 17.7539 16.6992 18 16.3125 18C7.27734 18 0 10.7227 0 1.6875C0 1.30078 0.246094 0.984375 0.632812 0.878906L4.28906 0.0351562C4.35938 0.0351562 4.42969 0 4.46484 0C4.81641 0 5.13281 0.210938 5.27344 0.527344L6.96094 4.46484C6.99609 4.57031 7.03125 4.67578 7.03125 4.78125C7.03125 5.0625 6.89062 5.30859 6.71484 5.44922L4.57031 7.20703C5.87109 9.94922 8.05078 12.1289 10.793 13.4297L12.5508 11.2852C12.6914 11.1094 12.9375 10.9688 13.1836 10.9688C13.3242 10.9688 13.4297 11.0039 13.5352 11.0391L17.4727 12.7266Z" fill="#C2A65C"/>
</svg>
